<?xml version="1.0" encoding="UTF-8"?>
<!-- Generated by Pixelmator Pro 3.6.17 -->
<svg width="48" height="48" viewBox="0 0 48 48" xmlns="http://www.w3.org/2000/svg">
    <g id="Group">
        <path id="Path" fill="#000000" stroke="none" d="M 24.00001 24.74818 C 24.048611 24.749161 24.09794 24.74506 24.147461 24.73535 L 33.857422 22.79492 C 34.083012 22.75 34.275391 22.60351 34.379879 22.397461 L 34.910149 21.34766 C 35.096668 20.978519 34.948238 20.527349 34.578121 20.339849 C 34.207031 20.15333 33.757809 20.30176 33.570309 20.671881 L 33.205078 21.39551 L 26.28632 22.778139 L 30.53223 18.53223 C 30.825199 18.23926 30.825199 17.76465 30.53223 17.47168 C 30.23926 17.178711 29.76465 17.178711 29.47168 17.47168 L 25.220221 21.723141 L 26.603519 14.806641 L 29.682131 13.271969 C 29.682131 13.271969 35.10635 18.69619 35.118149 18.707991 C 35.395481 18.985319 35.892578 18.99415 36.178719 18.70801 L 38.383801 16.50293 C 39.063492 15.821289 39.063492 14.71191 38.38282 14.029301 L 33.974621 9.62207 C 33.29298 8.94043 32.181648 8.94043 31.50001 9.62207 L 29.368601 11.75256 L 25.60548 13.628899 C 25.398451 13.732422 25.25001 13.925781 25.20509 14.15234 C 25.20509 14.15234 23.26779 23.836889 23.26466 23.85252 C 23.173849 24.306459 23.55628 24.739201 24.00001 24.74818 Z M 32.560551 10.682621 C 32.658211 10.584961 32.81641 10.584961 32.91407 10.682621 L 37.321301 15.088871 C 37.418961 15.1875 37.418961 15.345711 37.322281 15.443359 L 35.648449 17.117189 L 30.88673 12.355469 L 32.560551 10.682621 Z"/>
        <path id="path1" fill="#000000" stroke="none" d="M 37 31.25 L 33 31.25 C 32.03516 31.25 31.25 32.03516 31.25 33 L 31.25 34.211979 C 21.78632 33.824581 14.17542 26.21368 13.78802 16.75 L 15 16.75 C 15.96484 16.75 16.75 15.96484 16.75 15 L 16.75 11 C 16.75 10.03516 15.96484 9.25 15 9.25 L 11 9.25 C 10.03516 9.25 9.25 10.03516 9.25 11 L 9.25 15 C 9.25 15.96484 10.03516 16.75 11 16.75 L 12.25 16.75 L 12.25 29 C 12.25 29.414061 12.58594 29.75 13 29.75 C 13.41406 29.75 13.75 29.414061 13.75 29 L 13.75 23.531919 C 15.755 28.372129 19.627871 32.244999 24.468081 34.25 L 16.75 34.25 L 16.75 33 C 16.75 32.03516 15.96484 31.25 15 31.25 L 11 31.25 C 10.03516 31.25 9.25 32.03516 9.25 33 L 9.25 37 C 9.25 37.96484 10.03516 38.75 11 38.75 L 15 38.75 C 15.96484 38.75 16.75 37.96484 16.75 37 L 16.75 35.75 L 31.25 35.75 L 31.25 37 C 31.25 37.96484 32.03516 38.75 33 38.75 L 37 38.75 C 37.96484 38.75 38.75 37.96484 38.75 37 L 38.75 33 C 38.75 32.03516 37.96484 31.25 37 31.25 Z M 10.75 15 L 10.75 11 C 10.75 10.862301 10.8623 10.75 11 10.75 L 15 10.75 C 15.1377 10.75 15.25 10.862301 15.25 11 L 15.25 15 C 15.25 15.137699 15.1377 15.25 15 15.25 L 11 15.25 C 10.8623 15.25 10.75 15.137699 10.75 15 Z M 15.25 37 C 15.25 37.137699 15.1377 37.25 15 37.25 L 11 37.25 C 10.8623 37.25 10.75 37.137699 10.75 37 L 10.75 33 C 10.75 32.862301 10.8623 32.75 11 32.75 L 15 32.75 C 15.1377 32.75 15.25 32.862301 15.25 33 L 15.25 37 Z M 37.25 37 C 37.25 37.137699 37.137699 37.25 37 37.25 L 33 37.25 C 32.862301 37.25 32.75 37.137699 32.75 37 L 32.75 33 C 32.75 32.862301 32.862301 32.75 33 32.75 L 37 32.75 C 37.137699 32.75 37.25 32.862301 37.25 33 L 37.25 37 Z"/>
    </g>
</svg>
