<?xml version="1.0" encoding="UTF-8"?>
<!-- Generated by Pixelmator Pro 3.6.17 -->
<svg width="48" height="48" viewBox="0 0 48 48" xmlns="http://www.w3.org/2000/svg">
    <g id="Group">
        <path id="Path" fill="#ffffff" stroke="none" d="M 34 13.25 C 33.585941 13.25 33.25 13.585941 33.25 14 C 33.25 14.414059 33.585941 14.75 34 14.75 C 34.689449 14.75 35.25 15.310551 35.25 16 L 35.25 26.25 L 31.75 26.25 L 31.75 11 C 31.75 10.03516 30.96484 9.25 30 9.25 L 18 9.25 C 17.03516 9.25 16.25 10.03516 16.25 11 L 16.25 20 C 16.25 20.303221 16.432619 20.57666 16.712891 20.692869 C 16.99316 20.80908 17.31641 20.745119 17.53027 20.53027 L 21 17.060551 L 22.46973 18.530279 C 22.762699 18.82325 23.23731 18.82325 23.530279 18.530279 L 27.530279 14.530281 C 27.82325 14.237312 27.82325 13.762699 27.530279 13.46973 C 27.23731 13.176758 26.762699 13.176758 26.46973 13.46973 L 23 16.939449 L 21.53027 15.469719 C 21.237301 15.17675 20.76269 15.17675 20.469721 15.469719 L 17.75 18.189449 L 17.75 11 C 17.75 10.864258 17.86426 10.75 18 10.75 L 30 10.75 C 30.13574 10.75 30.25 10.864258 30.25 11 L 30.25 26.25 L 17.75 26.25 L 17.75 23 C 17.75 22.585939 17.414061 22.25 17 22.25 C 16.585939 22.25 16.25 22.585939 16.25 23 L 16.25 26.25 L 12.75 26.25 L 12.75 16 C 12.75 15.310551 13.31055 14.75 14 14.75 C 14.41406 14.75 14.75 14.414059 14.75 14 C 14.75 13.585941 14.41406 13.25 14 13.25 C 12.4834 13.25 11.25 14.483398 11.25 16 L 11.25 29 C 11.25 30.5166 12.4834 31.75 14 31.75 L 20.006161 31.75 L 18.43469 37.25 L 16 37.25 C 15.58594 37.25 15.25 37.585941 15.25 38 C 15.25 38.414059 15.58594 38.75 16 38.75 L 32 38.75 C 32.414059 38.75 32.75 38.414059 32.75 38 C 32.75 37.585941 32.414059 37.25 32 37.25 L 29.56531 37.25 L 27.993839 31.75 L 34 31.75 C 35.516602 31.75 36.75 30.5166 36.75 29 L 36.75 16 C 36.75 14.483398 35.516602 13.25 34 13.25 Z M 28.006161 37.25 L 19.99383 37.25 L 21.5653 31.75 L 26.434681 31.75 L 28.006161 37.25 Z M 34 30.25 L 14 30.25 C 13.31055 30.25 12.75 29.689449 12.75 29 L 12.75 27.75 L 35.25 27.75 L 35.25 29 C 35.25 29.689449 34.689449 30.25 34 30.25 Z"/>
        <path id="path1" fill="#ffffff" stroke="none" d="M 27 21.75 C 27.414061 21.75 27.75 21.414061 27.75 21 C 27.75 20.585939 27.414061 20.25 27 20.25 L 21 20.25 C 20.585939 20.25 20.25 20.585939 20.25 21 C 20.25 21.414061 20.585939 21.75 21 21.75 L 27 21.75 Z"/>
        <path id="path2" fill="#ffffff" stroke="none" d="M 19.25 24 C 19.25 24.414061 19.585939 24.75 20 24.75 L 28 24.75 C 28.414061 24.75 28.75 24.414061 28.75 24 C 28.75 23.585939 28.414061 23.25 28 23.25 L 20 23.25 C 19.585939 23.25 19.25 23.585939 19.25 24 Z"/>
    </g>
</svg>
