<?xml version="1.0" encoding="UTF-8"?>
<!-- Generated by Pixelmator Pro 3.6.17 -->
<svg width="48" height="48" viewBox="0 0 48 48" xmlns="http://www.w3.org/2000/svg">
    <g id="Group-copy">
        <g id="Group">
            <path id="Path" fill="#ffffff" stroke="#ffffff" stroke-width="0.2" stroke-opacity="0.875145" d="M 34.339653 27.52179 C 34.925556 27.450468 35.36742 26.951557 35.36742 26.361275 L 35.36742 25.435572 C 38.49416 25.312521 41 22.73111 41 19.575153 C 41 16.757137 38.969299 14.331451 36.228779 13.813015 C 35.531315 12.133732 33.889221 11.025681 32.051292 11.025681 C 31.796358 11.025681 31.542887 11.046864 31.29393 11.088833 C 30.981289 10.578499 30.615126 10.101173 30.202276 9.665947 C 30.012953 9.466328 29.69759 9.458092 29.498039 9.64735 C 29.298422 9.836678 29.290121 10.151974 29.479446 10.351589 C 29.91972 10.815769 30.299894 11.334068 30.609346 11.892216 C 30.71945 12.090702 30.949413 12.189716 31.169617 12.133003 C 31.454899 12.059296 31.751469 12.021973 32.051228 12.021973 C 33.56403 12.021973 34.906826 12.984932 35.392525 14.418175 C 35.453152 14.597141 35.609871 14.726368 35.79707 14.751869 C 38.195133 15.078587 40.003574 17.152121 40.003574 19.575153 C 40.003574 22.260023 37.818939 24.444324 35.133671 24.444324 L 32.7127 24.444324 C 32.437576 24.444324 32.214584 24.667381 32.214584 24.942436 C 32.214584 25.217558 32.437576 25.44055 32.7127 25.44055 L 34.370995 25.44055 L 34.370995 26.361208 C 34.370995 26.448465 34.305653 26.522175 34.219059 26.532736 L 31.625231 26.848696 C 31.430859 26.872402 31.268297 27.007805 31.209993 27.194738 C 31.076981 27.620934 30.901867 28.04195 30.689632 28.445965 C 30.598524 28.619484 30.617582 28.830257 30.738375 28.984587 L 32.350121 31.044243 C 32.403912 31.112906 32.397934 31.211187 32.336243 31.272879 L 30.330242 33.278877 C 30.268618 33.340504 30.170336 33.346546 30.101604 33.292755 L 28.04195 31.680944 C 27.887688 31.560152 27.676981 31.541161 27.503262 31.632204 C 27.099379 31.844372 26.678431 32.019485 26.251968 32.152565 C 26.065035 32.210934 25.929634 32.373428 25.905926 32.567867 L 25.589964 35.161697 C 25.579473 35.248287 25.505695 35.313564 25.418436 35.313564 L 22.581097 35.313564 C 22.493839 35.313564 22.42013 35.248222 22.409504 35.161697 L 22.093542 32.567867 C 22.069836 32.373428 21.9345 32.210934 21.747499 32.152565 C 21.321173 32.019485 20.900156 31.844372 20.496206 31.632204 C 20.322754 31.541094 20.111914 31.560087 19.957586 31.680944 L 17.897995 33.292755 C 17.829332 33.346611 17.73105 33.340504 17.669294 33.278877 L 15.663293 31.272879 C 15.601602 31.211187 15.595625 31.112906 15.649347 31.044176 L 17.26116 28.984587 C 17.381952 28.830257 17.401012 28.619417 17.309902 28.4459 C 17.097668 28.04195 16.922621 27.621 16.789543 27.194672 C 16.731171 27.007738 16.568676 26.872335 16.374237 26.848629 L 13.780411 26.532669 C 13.693816 26.52211 13.628539 26.448399 13.628539 26.361141 L 13.628539 25.440483 L 19.503832 25.440483 C 19.752655 27.701351 21.67359 29.466297 23.999601 29.466297 C 26.325613 29.466297 28.246548 27.70142 28.495371 25.440483 L 30.387749 25.440483 C 30.66287 25.440483 30.885862 25.217426 30.885862 24.942371 C 30.885862 24.66725 30.66287 24.444258 30.387749 24.444258 L 12.866195 24.444258 C 10.180925 24.444258 7.996293 22.259956 7.996293 19.575087 C 7.996293 17.152054 9.804668 15.078522 12.202797 14.751801 C 12.389997 14.726299 12.546715 14.597076 12.607344 14.41811 C 13.093105 12.984863 14.43584 12.021904 15.948641 12.021904 C 16.248398 12.021904 16.545034 12.059296 16.830317 12.132938 C 17.050121 12.189583 17.280483 12.090702 17.390518 11.892147 C 18.722961 9.48904 21.255497 7.996227 23.999933 7.996227 C 25.3258 7.996227 26.628956 8.344261 27.768356 9.002747 C 28.006687 9.140408 28.311293 9.058926 28.448954 8.82066 C 28.586613 8.582458 28.505066 8.27779 28.266867 8.140129 C 26.976128 7.394257 25.500648 7 24 7 C 21.017429 7 18.256124 8.557426 16.706003 11.088833 C 16.457047 11.046864 16.203575 11.025681 15.948641 11.025681 C 14.110782 11.025681 12.468687 12.133732 11.771223 13.813015 C 9.030769 14.331451 7 16.757071 7 19.575153 C 7 22.73111 9.50584 25.312521 12.632578 25.435572 L 12.632578 26.361275 C 12.632578 26.951492 13.074446 27.450468 13.660347 27.52179 L 15.941668 27.799698 C 16.040281 28.076813 16.154301 28.350805 16.282598 28.619087 L 14.86509 30.430384 C 14.501449 30.895094 14.541824 31.560286 14.959122 31.977514 L 15.609902 32.628296 L 13.745149 34.49305 C 13.651715 34.586487 13.599254 34.713188 13.599254 34.845268 L 13.599254 37.938141 C 12.976164 38.146988 12.52573 38.735878 12.52573 39.428364 C 12.52573 40.294964 13.230766 41 14.097367 41 C 14.963969 41 15.669003 40.294964 15.669003 39.428364 C 15.669003 38.735878 15.218571 38.146988 14.59548 37.938141 L 14.59548 35.051594 L 16.314341 33.332802 L 16.965054 33.983582 C 17.382286 34.400879 18.047409 34.441254 18.512188 34.077549 L 20.323484 32.660107 C 20.591764 32.788403 20.865757 32.90242 21.142872 33.001038 L 21.420782 35.282421 C 21.492168 35.868324 21.991077 36.310127 22.581297 36.310127 L 23.50182 36.310127 L 23.50182 37.93821 C 22.878731 38.147057 22.428297 38.735947 22.428297 39.428429 C 22.428362 40.294964 23.133398 41 24 41 C 24.8666 41 25.571703 40.294964 25.571703 39.428364 C 25.571703 38.735878 25.121269 38.146923 24.49818 37.938072 L 24.49818 36.30999 L 25.418705 36.30999 C 26.008923 36.30999 26.507898 35.868126 26.579218 35.282288 L 26.857061 33.0009 C 27.134243 32.90229 27.4081 32.788269 27.676382 32.659973 L 29.48768 34.077415 C 29.952389 34.441185 30.617582 34.400745 31.03488 33.983448 L 31.685593 33.332733 L 33.404385 35.051529 L 33.404385 37.938072 C 32.781296 38.146923 32.330864 38.735813 32.330864 39.428364 C 32.330864 40.294964 33.0359 41 33.902565 41 C 34.769104 41 35.474201 40.294964 35.474201 39.428364 C 35.474201 38.735878 35.023769 38.146988 34.400745 37.938141 L 34.400745 34.845268 C 34.400745 34.71312 34.348286 34.586418 34.254852 34.49305 L 32.390099 32.628296 L 33.040878 31.977514 C 33.458111 31.560219 33.49855 30.895027 33.134777 30.430384 L 31.717335 28.619087 C 31.845633 28.350805 31.959585 28.076813 32.058266 27.799767 Z M 24 28.470137 C 22.224031 28.470137 20.751074 27.150644 20.508293 25.440617 L 27.49164 25.440617 C 27.248859 27.150644 25.775969 28.470137 24 28.470137 Z M 14.097367 40.003708 C 13.780145 40.003708 13.522023 39.745583 13.522023 39.428364 C 13.522023 39.111141 13.780145 38.85302 14.097367 38.85302 C 14.41459 38.85302 14.672711 39.111141 14.672711 39.428364 C 14.672711 39.745583 14.414656 40.003708 14.097367 40.003708 Z M 24 40.003708 C 23.682777 40.003708 23.424656 39.745583 23.424656 39.428364 C 23.424656 39.111141 23.682777 38.85302 24 38.85302 C 24.317223 38.85302 24.575411 39.111141 24.575411 39.428364 C 24.575411 39.745583 24.317223 40.003708 24 40.003708 Z M 33.902634 40.003708 C 33.585411 40.003708 33.327221 39.745583 33.327221 39.428364 C 33.327221 39.111141 33.585342 38.85302 33.902634 38.85302 C 34.219856 38.85302 34.477978 39.111141 34.477978 39.428364 C 34.477978 39.745583 34.219856 40.003708 33.902634 40.003708 Z"/>
            <path id="path1" fill="#ffffff" stroke="none" d="M 18.812012 13.575478 L 17.791813 13.575478 C 16.776993 13.575478 15.951363 14.400845 15.951363 15.415333 L 15.951363 21.050964 C 15.951363 22.065784 16.776993 22.891415 17.791813 22.891415 L 30.208187 22.891415 C 31.223007 22.891415 32.048637 22.065784 32.048637 21.050964 L 32.048637 15.415333 C 32.048637 14.400845 31.223007 13.575478 30.208187 13.575478 L 21.136696 13.575478 C 20.861574 13.575478 20.638582 13.798538 20.638582 14.073593 C 20.638582 14.348713 20.861641 14.571709 21.136696 14.571709 L 30.208187 14.571709 C 30.67363 14.571709 31.052345 14.950089 31.052345 15.415264 L 31.052345 21.050898 C 31.052345 21.516407 30.67363 21.895056 30.208187 21.895056 L 17.791813 21.895056 C 17.326305 21.895056 16.947657 21.51634 16.947657 21.050898 L 16.947657 15.415264 C 16.947657 14.950157 17.326372 14.571709 17.791813 14.571709 L 18.812012 14.571709 C 19.087133 14.571709 19.310125 14.348648 19.310125 14.073593 C 19.310125 13.798538 19.087133 13.575478 18.812012 13.575478 Z"/>
            <path id="path2" fill="#ffffff" stroke="none" d="M 18.759882 20.84577 C 19.017075 20.94372 19.304813 20.814625 19.402695 20.557568 L 19.682066 19.824043 L 21.58507 19.824043 L 21.86132 20.556173 C 21.936625 20.755655 22.126148 20.878574 22.327492 20.878574 C 22.385929 20.878574 22.445364 20.868214 22.503269 20.846369 C 22.76066 20.749214 22.890617 20.461809 22.793465 20.20442 L 21.19573 15.970688 C 21.194004 15.966103 21.192211 15.961525 21.190285 15.957008 C 21.098047 15.732819 20.881962 15.58812 20.639645 15.58812 C 20.639444 15.58812 20.639179 15.58812 20.638981 15.58812 C 20.396399 15.588387 20.180313 15.733616 20.088472 15.958138 C 20.086946 15.961922 20.085484 15.965641 20.084023 15.969425 L 18.471613 20.202955 C 18.37373 20.460016 18.502758 20.74782 18.759882 20.84577 Z M 20.637918 17.314283 L 21.209078 18.827749 L 20.061512 18.827749 Z"/>
            <path id="path3" fill="#ffffff" stroke="none" d="M 29.560993 20.380194 L 29.560993 16.086168 C 29.560993 15.811047 29.337999 15.588055 29.06288 15.588055 C 28.787758 15.588055 28.564766 15.811111 28.564766 16.086168 L 28.564766 20.380194 C 28.564766 20.655315 28.787758 20.878309 29.06288 20.878309 C 29.337999 20.878309 29.560993 20.655315 29.560993 20.380194 Z"/>
            <path id="path4" fill="#ffffff" stroke="none" d="M 24.982811 20.380196 L 24.982811 19.010433 C 25.234226 19.009108 25.519707 19.007845 25.680344 19.007845 C 26.636263 19.007845 27.414013 18.240786 27.414013 17.297951 C 27.414013 16.355047 26.63633 15.58799 25.680344 15.58799 L 24.484699 15.58799 C 24.209578 15.58799 23.986586 15.811047 23.986586 16.086102 L 23.986586 20.380131 C 23.986586 20.655251 24.209578 20.878242 24.484699 20.878242 C 24.759819 20.878376 24.982811 20.655315 24.982811 20.380196 Z M 24.982811 16.584347 L 25.680344 16.584347 C 26.080042 16.584347 26.417719 16.911133 26.417719 17.298016 C 26.417719 17.684832 26.080042 18.01162 25.680344 18.01162 C 25.519707 18.01162 25.234625 18.012878 24.982811 18.014139 Z"/>
        </g>
    </g>
</svg>
