<?xml version="1.0" encoding="UTF-8"?>
<!-- Generated by Pixelmator Pro 3.6.17 -->
<svg width="48" height="48" viewBox="0 0 48 48" xmlns="http://www.w3.org/2000/svg">
    <g id="Group">
        <path id="Path" fill="#ffffff" stroke="none" d="M 36 9.25 L 12 9.25 C 10.4834 9.25 9.25 10.483398 9.25 12 L 9.25 30 C 9.25 31.5166 10.4834 32.75 12 32.75 L 15 32.75 C 15.41406 32.75 15.75 32.414059 15.75 32 C 15.75 31.585939 15.41406 31.25 15 31.25 L 12 31.25 C 11.31055 31.25 10.75 30.689449 10.75 30 L 10.75 12 C 10.75 11.310551 11.31055 10.75 12 10.75 L 31.25 10.75 L 31.25 15.25 L 13 15.25 C 12.58594 15.25 12.25 15.585941 12.25 16 C 12.25 16.414061 12.58594 16.75 13 16.75 L 37.25 16.75 L 37.25 23.299801 C 37.25 23.71386 37.585941 24.049801 38 24.049801 C 38.414059 24.049801 38.75 23.71386 38.75 23.299801 L 38.75 12 C 38.75 10.483398 37.516602 9.25 36 9.25 Z M 32.75 15.25 L 32.75 10.75 L 36 10.75 C 36.689449 10.75 37.25 11.310551 37.25 12 L 37.25 15.25 L 32.75 15.25 Z"/>
        <path id="path1" fill="#ffffff" stroke="none" d="M 15.75 13 C 15.75 13.414215 15.414213 13.75 15 13.75 C 14.585787 13.75 14.25 13.414215 14.25 13 C 14.25 12.585785 14.585787 12.25 15 12.25 C 15.414213 12.25 15.75 12.585785 15.75 13 Z"/>
        <path id="path2" fill="#ffffff" stroke="none" d="M 18.75 13 C 18.75 13.414215 18.414213 13.75 18 13.75 C 17.585787 13.75 17.25 13.414215 17.25 13 C 17.25 12.585785 17.585787 12.25 18 12.25 C 18.414213 12.25 18.75 12.585785 18.75 13 Z"/>
        <path id="path3" fill="#ffffff" stroke="none" d="M 21.75 13 C 21.75 13.414215 21.414213 13.75 21 13.75 C 20.585787 13.75 20.25 13.414215 20.25 13 C 20.25 12.585785 20.585787 12.25 21 12.25 C 21.414213 12.25 21.75 12.585785 21.75 13 Z"/>
        <path id="path4" fill="#ffffff" stroke="none" d="M 25.03027 29.46973 C 24.737301 29.17676 24.26269 29.17676 23.969721 29.46973 L 21.969721 31.46973 C 21.67675 31.762699 21.67675 32.237309 21.969721 32.530281 C 21.969721 32.530281 23.96669 34.527248 23.969721 34.530281 C 24.25267 34.813229 24.74135 34.819199 25.03027 34.530281 C 25.32324 34.237309 25.32324 33.762699 25.03027 33.46973 L 23.560551 32 L 25.030279 30.53027 C 25.32324 30.237301 25.32324 29.762699 25.03027 29.46973 Z"/>
        <path id="path5" fill="#ffffff" stroke="none" d="M 32.03027 29.46973 C 31.737301 29.17676 31.26269 29.17676 30.969721 29.46973 C 30.67675 29.762699 30.67675 30.23731 30.969721 30.530279 L 32.439449 32 L 30.969721 33.46973 C 30.6768 33.76265 30.67675 34.237148 30.96957 34.530128 C 31.245689 34.806412 31.73789 34.822639 32.03027 34.530281 L 34.03027 32.530281 C 34.323238 32.237309 34.323238 31.762699 34.03027 31.46973 L 32.03027 29.46973 Z"/>
        <path id="path6" fill="#ffffff" stroke="none" d="M 28.623051 28.26025 C 28.22266 28.192869 27.828131 28.46777 27.759769 28.876459 L 26.759769 34.876461 C 26.69239 35.285149 26.967779 35.671871 27.37698 35.73975 C 27.780701 35.80703 28.172689 35.526169 28.24024 35.123539 L 29.24024 29.123541 C 29.307619 28.71484 29.03223 28.328119 28.623051 28.26025 Z"/>
        <path id="path7" fill="#ffffff" stroke="none" d="M 36 25.25 L 20 25.25 C 18.4834 25.25 17.25 26.4834 17.25 28 L 17.25 36 C 17.25 37.516602 18.4834 38.75 20 38.75 L 36 38.75 C 37.516602 38.75 38.75 37.516602 38.75 36 L 38.75 28 C 38.75 26.4834 37.516602 25.25 36 25.25 Z M 37.25 36 C 37.25 36.689449 36.689449 37.25 36 37.25 L 20 37.25 C 19.310551 37.25 18.75 36.689449 18.75 36 L 18.75 28 C 18.75 27.310551 19.310551 26.75 20 26.75 L 36 26.75 C 36.689449 26.75 37.25 27.310551 37.25 28 L 37.25 36 Z"/>
    </g>
</svg>
