<?xml version="1.0" encoding="UTF-8"?>
<!-- Generated by Pixelmator Pro 3.6.17 -->
<svg width="48" height="48" viewBox="0 0 48 48" xmlns="http://www.w3.org/2000/svg">
    <g id="Group">
        <path id="Path" fill="#ffffff" stroke="none" d="M 25 32.25 L 12 32.25 C 11.31055 32.25 10.75 31.689449 10.75 31 L 10.75 12 C 10.75 11.310551 11.31055 10.75 12 10.75 L 31.25 10.75 L 31.25 15.25 L 13 15.25 C 12.58594 15.25 12.25 15.585941 12.25 16 C 12.25 16.414061 12.58594 16.75 13 16.75 L 37.25 16.75 L 37.25 26.299801 C 37.25 26.71386 37.585941 27.049801 38 27.049801 C 38.414059 27.049801 38.75 26.71386 38.75 26.299801 L 38.75 12 C 38.75 10.483398 37.516602 9.25 36 9.25 L 12 9.25 C 10.4834 9.25 9.25 10.483398 9.25 12 L 9.25 31 C 9.25 32.516602 10.4834 33.75 12 33.75 L 25 33.75 C 25.414061 33.75 25.75 33.414059 25.75 33 C 25.75 32.585941 25.414061 32.25 25 32.25 Z M 37.25 12 L 37.25 15.25 L 32.75 15.25 L 32.75 10.75 L 36 10.75 C 36.689449 10.75 37.25 11.310551 37.25 12 Z"/>
        <path id="path1" fill="#ffffff" stroke="none" d="M 15.75 13 C 15.75 13.414215 15.414213 13.75 15 13.75 C 14.585787 13.75 14.25 13.414215 14.25 13 C 14.25 12.585785 14.585787 12.25 15 12.25 C 15.414213 12.25 15.75 12.585785 15.75 13 Z"/>
        <path id="path2" fill="#ffffff" stroke="none" d="M 18.75 13 C 18.75 13.414215 18.414213 13.75 18 13.75 C 17.585787 13.75 17.25 13.414215 17.25 13 C 17.25 12.585785 17.585787 12.25 18 12.25 C 18.414213 12.25 18.75 12.585785 18.75 13 Z"/>
        <path id="path3" fill="#ffffff" stroke="none" d="M 21.75 13 C 21.75 13.414215 21.414213 13.75 21 13.75 C 20.585787 13.75 20.25 13.414215 20.25 13 C 20.25 12.585785 20.585787 12.25 21 12.25 C 21.414213 12.25 21.75 12.585785 21.75 13 Z"/>
        <path id="path4" fill="#ffffff" stroke="none" d="M 21.03027 21.46973 C 20.737301 21.17676 20.26269 21.17676 19.969721 21.46973 L 17.969721 23.46973 C 17.67675 23.762699 17.67675 24.23731 17.969721 24.530279 C 17.969721 24.530279 19.96633 26.52689 19.969721 26.530279 C 20.248329 26.808889 20.743099 26.817459 21.03027 26.530279 C 21.32324 26.23731 21.32324 25.762699 21.03027 25.46973 L 19.560551 24 L 21.030279 22.53027 C 21.32324 22.237301 21.32324 21.762699 21.03027 21.46973 Z"/>
        <path id="path5" fill="#ffffff" stroke="none" d="M 28.03027 26.53027 L 30.03027 24.53027 C 30.32324 24.237301 30.32324 23.76269 30.03027 23.469721 L 28.03027 21.469721 C 27.737301 21.17675 27.26269 21.17675 26.969721 21.469721 C 26.67675 21.76269 26.67675 22.237301 26.969721 22.53027 L 28.439449 24 L 26.969721 25.46973 C 26.67676 25.76269 26.67675 26.237261 26.969681 26.53023 C 27.250219 26.81081 27.742149 26.81839 28.03027 26.53027 Z"/>
        <path id="path6" fill="#ffffff" stroke="none" d="M 23.76025 20.876459 L 22.76025 26.876949 C 22.691891 27.285151 22.96826 27.671869 23.376471 27.740231 C 23.77808 27.805599 24.17314 27.52371 24.23974 27.123039 L 25.240231 21.123529 C 25.30761 20.71484 25.032221 20.328119 24.623529 20.26025 C 24.21191 20.19385 23.828119 20.46777 23.76025 20.876459 Z"/>
        <path id="path7" fill="#ffffff" stroke="none" d="M 38.241211 30.335939 L 35.37109 27.46582 C 34.689449 26.78418 33.578121 26.78418 32.896481 27.46582 L 31.547911 28.81348 L 28.799801 30.18848 C 28.59277 30.292 28.445311 30.485359 28.400391 30.71192 L 26.97168 37.852539 C 26.92285 38.098629 26.99902 38.352531 27.17675 38.53027 C 27.349951 38.70348 27.61454 38.78241 27.85449 38.735359 L 34.99511 37.307629 C 35.221668 37.262711 35.415031 37.114269 35.518551 36.908218 L 36.893551 34.159142 L 38.241211 32.81057 C 38.923828 32.12793 38.923828 31.018551 38.241211 30.335939 Z M 34.34082 35.90918 L 29.988529 36.779049 L 31.807619 34.959961 C 32.10059 34.666988 32.10059 34.192379 31.807619 33.89941 C 31.51465 33.606441 31.040039 33.606441 30.74707 33.89941 L 28.92828 35.718201 L 29.79882 31.366211 L 31.8435 30.3435 L 35.363579 33.863579 L 34.34082 35.90918 Z M 37.18066 31.75 L 36.27636 32.65527 L 33.05175 29.43066 L 33.95702 28.52636 C 34.05468 28.428699 34.212879 28.428699 34.310539 28.52636 L 37.18066 31.396481 C 37.27832 31.494141 37.27832 31.65234 37.18066 31.75 Z"/>
    </g>
</svg>
