<?xml version="1.0" encoding="UTF-8"?>
<!-- Generated by Pixelmator Pro 3.6.17 -->
<svg width="262" height="66" viewBox="0 0 262 66" xmlns="http://www.w3.org/2000/svg">
    <g id="Group-copy">
        <g id="Layer1">
            <g id="Group">
                <text id="Encodyn" xml:space="preserve" x="66" y="47" font-family="Clash Display" font-size="41.4" font-weight="500" fill="#ffffff">Encodyn</text>
                <g id="g1">
                    <path id="Path" fill="#ffffff" stroke="none" d="M 19.5 48.699997 L 19.5 29.399994 C 21 30.199997 22.300003 31 23.5 31.800003 C 23.699997 31.899994 23.800003 32.5 23.800003 32.800003 C 23.800003 38.100006 23.800003 43.399994 23.699997 48.699997 C 23.699997 51.800003 23.699997 54.800003 23.699997 58.100006 C 23.300003 57.899994 23.099998 57.800003 22.800003 57.600006 C 16.199997 53.800003 9.599998 50 3 46.199997 C 2.599998 45.899994 2.299999 45.699997 2.299999 45.100006 C 2.299999 36.899994 2.299999 28.600006 2.299999 20.399994 C 2.299999 20.199997 2.299999 20 2.299999 19.600006 C 3.700001 20.399994 5.099998 21.199997 6.400002 22 C 6.599998 22.100006 6.599998 22.600006 6.599998 22.899994 C 6.599998 28.699997 6.599998 34.5 6.599998 40.300003 C 6.599998 41.100006 6.799999 41.5 7.5 41.800003 C 8.599998 42.300003 9.599998 43 10.800003 43.600006 L 10.800003 25 C 12 25.699997 13 26.300003 14 26.800003 C 14.900002 27.199997 15.199997 27.800003 15.199997 28.899994 C 15.199997 34.300003 15.199997 39.800003 15.199997 45.199997 C 15.199997 45.800003 15.400002 46.199997 16 46.600006 C 17.099998 47.199997 18.199997 47.899994 19.599998 48.699997 Z"/>
                    <path id="path1" fill="#ffffff" stroke="none" d="M 25.800003 28.399994 C 18.699997 24.300003 11.599998 20.199997 4.400002 16 C 5.799999 15.199997 7.099998 14.5 8.400002 13.699997 C 13.900002 10.600006 19.5 7.5 24.900002 4.300003 C 25.900002 3.699997 26.599998 3.800003 27.5 4.300003 C 33.800003 8.100006 40.199997 11.800003 46.599998 15.5 C 46.900002 15.699997 47.099998 15.800003 47.5 16 C 40.199997 20.100006 33 24.199997 25.800003 28.300003 Z M 38.800003 16.100006 C 38.400002 15.899994 38.099998 15.699997 37.900002 15.5 C 34.199997 13.399994 30.599998 11.199997 26.900002 9 C 26.300003 8.699997 25.900002 8.699997 25.400002 9 C 25.400002 9 14 15.600006 13.599998 15.800003 C 15.5 16.800003 17.199997 17.699997 18.900002 18.699997 C 21.199997 20 23.5 21.399994 25.699997 22.699997 C 26.199997 23 26.5 23 27 22.699997 C 27.800003 22.199997 27.900002 22.100006 38.800003 15.899994 Z"/>
                    <path id="path2" fill="#ffffff" stroke="none" d="M 28.300003 57.699997 C 28.300003 54.5 28.300003 51.5 28.300003 48.399994 C 28.300003 43.199997 28.300003 37.899994 28.300003 32.699997 C 28.300003 31.899994 28.5 31.5 29.199997 31.199997 C 30.199997 30.800003 31.099998 30.199997 32.199997 29.699997 L 32.199997 48.800003 C 33.5 48.100006 34.699997 47.5 35.900002 46.800003 C 36.099998 46.699997 36.099998 46.199997 36.099998 45.899994 C 36.099998 40.399994 36.099998 34.800003 36.099998 29.300003 C 36.099998 28.5 36.300003 28.100006 37 27.800003 C 38 27.399994 39 26.800003 40.099998 26.199997 L 40.099998 44.699997 C 41.400002 44 42.599998 43.399994 43.800003 42.699997 C 44 42.600006 44 42.100006 44 41.800003 C 44 36.899994 44 32 44 27.100006 C 44 26.399994 44.099998 25.699997 44 25 C 43.800003 23.800003 44.300003 23.100006 45.400002 22.699997 C 46.199997 22.399994 47 21.899994 47.900002 21.399994 C 47.900002 22.100006 47.900002 22.699997 47.900002 23.199997 C 47.900002 31 47.900002 38.699997 47.900002 46.5 C 47.900002 47.199997 47.699997 47.5 47.099998 47.800003 C 41.099998 50.899994 35.099998 54.100006 29 57.199997 C 28.800003 57.300003 28.5 57.399994 28.199997 57.600006 Z"/>
                </g>
            </g>
        </g>
    </g>
</svg>
